<?xml version="1.0" standalone="no"?><!DOCTYPE svg PUBLIC "-//W3C//DTD SVG 1.1//EN" "http://www.w3.org/Graphics/SVG/1.1/DTD/svg11.dtd"><svg t="1654313559129" class="icon" viewBox="0 0 1024 1024" version="1.1" xmlns="http://www.w3.org/2000/svg" p-id="1222" xmlns:xlink="http://www.w3.org/1999/xlink" width="200" height="200"><defs><style type="text/css"></style></defs><path d="M561.22985 632.828214c-180.218401 0-326.304528 162.342615-326.304528 362.627617h652.70431c0-200.285002-146.086128-362.627617-326.399782-362.627617z" fill="#56E5BE" p-id="1223"></path><path d="M575.073265 632.828214c-157.802229 0-285.758563 162.342615-285.758563 362.627617h571.517127c0-200.285002-127.924584-362.627617-285.758564-362.627617z" fill="#50DDB8" p-id="1224"></path><path d="M594.536598 684.645767c-144.847841 0-262.29461 144.212822-262.29461 322.081652h524.620972c0-177.86883-117.44677-322.081652-262.326362-322.081652z" fill="#42D3AD" p-id="1225"></path><path d="M511.984125 565.738454a282.805725 282.805725 0 1 1 282.837475-282.805725 283.154985 283.154985 0 0 1-282.837475 282.805725z m0-508.523239a225.717514 225.717514 0 1 0 225.749265 225.717514 226.003273 226.003273 0 0 0-225.749265-225.844518zM831.335195 1023.999936H192.696556A69.217074 69.217074 0 0 1 123.892244 946.36886a391.203473 391.203473 0 0 1 776.215512 0 69.217074 69.217074 0 0 1-68.772561 77.631076zM512.015875 661.37232a334.36927 334.36927 0 0 0-331.479933 292.108753 11.747852 11.747852 0 0 0 2.857586 9.144274 12.287618 12.287618 0 0 0 9.271277 4.191126h638.67039a12.255867 12.255867 0 0 0 9.303028-4.191126 11.747852 11.747852 0 0 0 2.889337-9.239527 334.36927 334.36927 0 0 0-331.511685-292.0135z" fill="#2E3138" p-id="1226"></path></svg>