<?xml version="1.0" standalone="no"?><!DOCTYPE svg PUBLIC "-//W3C//DTD SVG 1.1//EN" "http://www.w3.org/Graphics/SVG/1.1/DTD/svg11.dtd"><svg t="1654175402533" class="icon" viewBox="0 0 1024 1024" version="1.1" xmlns="http://www.w3.org/2000/svg" p-id="1357" xmlns:xlink="http://www.w3.org/1999/xlink" width="200" height="200"><defs><style type="text/css"></style></defs><path d="M922.819288 726.74673S714.537286 491.005299 671.139868 450.936297a12.513562 12.513562 0 0 1-3.2004-14.145766 247.870945 247.870945 0 0 0 16.73809-122.191255c-14.049754-123.311395-120.943099-222.875825-254.943828-237.437643a317.479635 317.479635 0 0 0-114.70232 8.289035 15.649954 15.649954 0 0 0-7.520939 26.819348l200.184992 186.167242a39.620946 39.620946 0 0 1-0.352044 59.175388l-123.151375 111.82196c-17.794221 16.162018-71.144882 32.900107-88.74708 16.514062L120.799161 303.941945c-10.337291-9.601199-12.641578-9.601199-14.561818 3.68046a247.966957 247.966957 0 0 0-0.544068 66.280274c15.393922 122.735323 122.287267 220.827569 255.807936 235.005339a316.519515 316.519515 0 0 0 97.292146-4.640579 14.625826 14.625826 0 0 1 15.329914 6.400799 43.077378 43.077378 0 0 0 7.040879 8.641079l286.851812 266.785306c17.602198 16.354042 91.211387 97.100122 109.005609 80.938105l103.436913-153.107114c17.794221-16.322038-40.036998-70.824842-57.639196-87.178884z" fill="#56E5BE" p-id="1358"></path><path d="M383.487956 487.836903c15.009874 3.584447 6.976871-28.003496 18.786345-38.724834l123.151375-111.82196a39.620946 39.620946 0 0 0 0.352044-59.175388L325.592728 91.947479a15.61795 15.61795 0 0 1 7.520939-26.787344 316.839555 316.839555 0 0 1 114.70232-8.321039c134.000729 14.561818 213.402642 100.04449 227.420392 223.355885 4.960619 43.33341-2.848356 75.625441-18.082257 113.070116-1.984248 4.928615-10.81735 38.084755-6.784847 41.829222 43.397418 40.036998 265.633163 288.708043 265.633162 288.708043 17.602198 16.354042 100.236514 53.478676 82.442293 69.640694l-103.40491 153.107115c-17.826225 16.001998-91.435415-64.552059-109.037613-80.938105l-286.595779-266.785306a43.077378 43.077378 0 0 1-7.072883-8.545067 14.625826 14.625826 0 0 0-15.329914-6.400799 316.519515 316.519515 0 0 1-97.292146 4.640579c-133.648685-14.01775-240.574034-112.206008-255.967956-234.845319l121.359151 106.957353 52.006492 41.285154 49.734209 5.376672 23.170893-15.809974 13.473682-3.776472" fill="#50DDB8" p-id="1359"></path><path d="M164.100567 390.160709c39.97299 87.402912 129.232134 151.570923 235.261371 162.804325a316.327492 316.327492 0 0 0 97.260142-4.640579 14.721838 14.721838 0 0 1 15.329914 6.400799 41.605194 41.605194 0 0 0 7.104887 8.545067l286.819808 266.785306c17.602198 16.386046 91.211387 97.132126 109.037612 80.938105l42.949362-141.265636c17.794221-16.001998-85.258644-70.664822-102.860841-87.050868 0 0-144.946096-237.277623-188.343514-277.314621-4.032503-3.744467-3.584447-36.548563-1.568196-41.605194 15.201898-37.444675 2.304288-55.782964-2.656331-99.212386-14.01775-123.343399-64.584063-213.018594-198.584792-227.580412-40.101006-4.352543-141.13762-27.2354-177.014099-17.826226a15.649954 15.649954 0 0 0-7.520939 26.819349l195.000344 209.754186c17.602198 16.386046 46.629821 32.996119 28.803596 49.158137l-81.06612 108.653565c-10.369295 9.409175-72.32903 182.422774-105.069118 93.675695" fill="#42D3AD" p-id="1360"></path><path d="M799.091842 1023.99984a78.793837 78.793837 0 0 1-55.910981-23.138889l-311.43088-311.43088a80.009989 80.009989 0 0 1-6.400799-7.200899 345.035075 345.035075 0 0 1-105.037113 4.576571c-157.299638-17.122138-285.219608-143.473912-304.037957-300.421505A348.299483 348.299483 0 0 1 16.466136 301.157598a48.870101 48.870101 0 0 1 82.98636-28.803596l199.352888 199.736936a19.906485 19.906485 0 0 0 27.267404 0l132.24051-132.272514a19.202397 19.202397 0 0 0 0-27.2354l-217.30713-217.339133a48.806093 48.806093 0 0 1 20.706585-81.354157A344.427 344.427 0 0 1 397.185666 2.304288c158.227754 17.666206 285.763676 145.362148 303.205854 303.621905a343.658904 343.658904 0 0 1-16.001998 148.754571c60.167512 59.879476 300.261486 299.749422 302.789801 302.277738a79.145881 79.145881 0 0 1 0 111.789956l-132.208505 132.112493a78.665821 78.665821 0 0 1-55.878976 23.138889zM432.198037 620.685489a44.997618 44.997618 0 0 1 38.948863 22.626825 20.450553 20.450553 0 0 0 2.976371 3.872483l311.334869 311.366872a19.554441 19.554441 0 0 0 27.267404 0l132.272513-132.272513a19.586445 19.586445 0 0 0 0-27.267404c-3.2004-3.2004-262.624787-262.432763-309.126592-308.518517a45.797718 45.797718 0 0 1-10.529315-48.005993 283.619408 283.619408 0 0 0 15.61795-130.064238c-14.401798-130.704318-119.726947-236.189487-250.399261-250.751305a286.531772 286.531772 0 0 0-93.739703 4.8006l203.76944 203.769439a79.145881 79.145881 0 0 1 0 111.789956l-132.40053 132.176502a79.145881 79.145881 0 0 1-111.789956 0l-182.646802-182.934839a288.035959 288.035959 0 0 0 1.792223 47.81397c15.649954 129.648186 121.359151 234.013215 251.295373 248.158981a284.83556 284.83556 0 0 0 95.083871-5.536691 46.469801 46.469801 0 0 1 10.273282-1.024128z" fill="#2E3138" p-id="1361"></path></svg>